<mxfile host="app.diagrams.net" modified="2024-03-06T11:07:35.504Z" agent="Mozilla/5.0 (X11; Linux x86_64) AppleWebKit/537.36 (KHTML, like Gecko) Chrome/120.0.0.0 Safari/537.36" etag="BUWICSafzyTHQMQ5JIuY" version="24.0.2" type="github">
  <diagram name="Page-1" id="Rupise0HBoOCdL9hIhHk">
    <mxGraphModel dx="880" dy="1591" grid="1" gridSize="10" guides="1" tooltips="1" connect="1" arrows="1" fold="1" page="1" pageScale="1" pageWidth="827" pageHeight="1169" background="#6e6363" math="0" shadow="0">
      <root>
        <mxCell id="0" />
        <mxCell id="1" parent="0" />
        <mxCell id="v4BX44I653S6ZItJ23Sv-1" value="Uniformed search" style="rounded=0;whiteSpace=wrap;html=1;strokeWidth=5;font-size:1rem;labelBackgroundColor=none;fillColor=#09555B;strokeColor=#BAC8D3;fontColor=#EEEEEE;" vertex="1" parent="1">
          <mxGeometry x="180" y="80" width="120" height="60" as="geometry" />
        </mxCell>
        <mxCell id="v4BX44I653S6ZItJ23Sv-18" style="edgeStyle=orthogonalEdgeStyle;rounded=0;orthogonalLoop=1;jettySize=auto;html=1;entryX=0.5;entryY=0;entryDx=0;entryDy=0;labelBackgroundColor=none;strokeColor=#0B4D6A;fontColor=default;strokeWidth=6;" edge="1" parent="1" source="v4BX44I653S6ZItJ23Sv-2" target="v4BX44I653S6ZItJ23Sv-17">
          <mxGeometry relative="1" as="geometry" />
        </mxCell>
        <mxCell id="v4BX44I653S6ZItJ23Sv-21" style="edgeStyle=orthogonalEdgeStyle;rounded=0;orthogonalLoop=1;jettySize=auto;html=1;entryX=0.5;entryY=0;entryDx=0;entryDy=0;labelBackgroundColor=none;strokeColor=#0B4D6A;fontColor=default;strokeWidth=6;" edge="1" parent="1" source="v4BX44I653S6ZItJ23Sv-2" target="v4BX44I653S6ZItJ23Sv-20">
          <mxGeometry relative="1" as="geometry" />
        </mxCell>
        <mxCell id="v4BX44I653S6ZItJ23Sv-2" value="Informed Search" style="rounded=0;whiteSpace=wrap;html=1;strokeWidth=5;perimeterSpacing=4;labelBackgroundColor=none;fillColor=#09555B;strokeColor=#BAC8D3;fontColor=#EEEEEE;" vertex="1" parent="1">
          <mxGeometry x="390" y="80" width="120" height="60" as="geometry" />
        </mxCell>
        <mxCell id="v4BX44I653S6ZItJ23Sv-6" value="breadth first search" style="rounded=0;whiteSpace=wrap;html=1;labelBackgroundColor=none;fillColor=#09555B;strokeColor=#BAC8D3;fontColor=#EEEEEE;" vertex="1" parent="1">
          <mxGeometry x="60" y="200" width="120" height="60" as="geometry" />
        </mxCell>
        <mxCell id="v4BX44I653S6ZItJ23Sv-7" value="depth first search" style="rounded=0;whiteSpace=wrap;html=1;labelBackgroundColor=none;fillColor=#09555B;strokeColor=#BAC8D3;fontColor=#EEEEEE;" vertex="1" parent="1">
          <mxGeometry x="250" y="200" width="120" height="60" as="geometry" />
        </mxCell>
        <mxCell id="v4BX44I653S6ZItJ23Sv-12" style="edgeStyle=orthogonalEdgeStyle;rounded=0;orthogonalLoop=1;jettySize=auto;html=1;entryX=0.433;entryY=-0.033;entryDx=0;entryDy=0;entryPerimeter=0;labelBackgroundColor=none;strokeColor=#0B4D6A;fontColor=default;strokeWidth=6;" edge="1" parent="1" source="v4BX44I653S6ZItJ23Sv-1" target="v4BX44I653S6ZItJ23Sv-6">
          <mxGeometry relative="1" as="geometry">
            <Array as="points">
              <mxPoint x="240" y="170" />
              <mxPoint x="112" y="170" />
            </Array>
          </mxGeometry>
        </mxCell>
        <mxCell id="v4BX44I653S6ZItJ23Sv-13" style="edgeStyle=orthogonalEdgeStyle;rounded=0;orthogonalLoop=1;jettySize=auto;html=1;entryX=0.6;entryY=-0.067;entryDx=0;entryDy=0;entryPerimeter=0;labelBackgroundColor=none;strokeColor=#0B4D6A;fontColor=default;strokeWidth=6;" edge="1" parent="1" source="v4BX44I653S6ZItJ23Sv-1" target="v4BX44I653S6ZItJ23Sv-7">
          <mxGeometry relative="1" as="geometry" />
        </mxCell>
        <mxCell id="v4BX44I653S6ZItJ23Sv-15" style="edgeStyle=orthogonalEdgeStyle;rounded=0;orthogonalLoop=1;jettySize=auto;html=1;labelBackgroundColor=none;strokeColor=#0B4D6A;fontColor=default;strokeWidth=6;" edge="1" parent="1" source="v4BX44I653S6ZItJ23Sv-14">
          <mxGeometry relative="1" as="geometry">
            <mxPoint x="220" y="70" as="targetPoint" />
          </mxGeometry>
        </mxCell>
        <mxCell id="v4BX44I653S6ZItJ23Sv-16" style="edgeStyle=orthogonalEdgeStyle;rounded=0;orthogonalLoop=1;jettySize=auto;html=1;labelBackgroundColor=none;strokeColor=#0B4D6A;fontColor=default;strokeWidth=6;" edge="1" parent="1" source="v4BX44I653S6ZItJ23Sv-14">
          <mxGeometry relative="1" as="geometry">
            <mxPoint x="470" y="70" as="targetPoint" />
          </mxGeometry>
        </mxCell>
        <mxCell id="v4BX44I653S6ZItJ23Sv-14" value="Search" style="rounded=0;whiteSpace=wrap;html=1;labelBackgroundColor=none;fillColor=#09555B;strokeColor=#BAC8D3;fontColor=#EEEEEE;" vertex="1" parent="1">
          <mxGeometry x="280" y="-20" width="120" height="60" as="geometry" />
        </mxCell>
        <mxCell id="v4BX44I653S6ZItJ23Sv-17" value="Greedy best first search" style="rounded=0;whiteSpace=wrap;html=1;labelBackgroundColor=none;fillColor=#09555B;strokeColor=#BAC8D3;fontColor=#EEEEEE;" vertex="1" parent="1">
          <mxGeometry x="390" y="200" width="120" height="60" as="geometry" />
        </mxCell>
        <mxCell id="v4BX44I653S6ZItJ23Sv-23" value="" style="edgeStyle=orthogonalEdgeStyle;rounded=0;orthogonalLoop=1;jettySize=auto;html=1;strokeColor=#0B4D6A;strokeWidth=4;" edge="1" parent="1" source="v4BX44I653S6ZItJ23Sv-19" target="v4BX44I653S6ZItJ23Sv-22">
          <mxGeometry relative="1" as="geometry" />
        </mxCell>
        <mxCell id="v4BX44I653S6ZItJ23Sv-19" value="Adeversarial algorithms" style="rounded=0;whiteSpace=wrap;html=1;labelBackgroundColor=none;fillColor=#09555B;strokeColor=#BAC8D3;fontColor=#EEEEEE;" vertex="1" parent="1">
          <mxGeometry x="670" y="70" width="120" height="60" as="geometry" />
        </mxCell>
        <mxCell id="v4BX44I653S6ZItJ23Sv-20" value="A* search" style="rounded=0;whiteSpace=wrap;html=1;labelBackgroundColor=none;fillColor=#09555B;strokeColor=#BAC8D3;fontColor=#EEEEEE;" vertex="1" parent="1">
          <mxGeometry x="540" y="200" width="120" height="60" as="geometry" />
        </mxCell>
        <mxCell id="v4BX44I653S6ZItJ23Sv-22" value="MiniMax" style="rounded=0;whiteSpace=wrap;html=1;strokeColor=#BAC8D3;fontColor=#EEEEEE;fillColor=#09555B;" vertex="1" parent="1">
          <mxGeometry x="670" y="170" width="120" height="60" as="geometry" />
        </mxCell>
        <mxCell id="v4BX44I653S6ZItJ23Sv-24" value="Phucking borring bc" style="shape=singleArrow;whiteSpace=wrap;html=1;arrowWidth=1;arrowSize=0.41818181818181815;strokeColor=#BAC8D3;fontColor=#EEEEEE;fillColor=#09555B;" vertex="1" parent="1">
          <mxGeometry y="-10" width="110" height="40" as="geometry" />
        </mxCell>
      </root>
    </mxGraphModel>
  </diagram>
</mxfile>
